<mxfile host="drawio-plugin" modified="2022-02-15T05:37:48.414Z" agent="5.0 (Macintosh; Intel Mac OS X 11_6_3) AppleWebKit/537.36 (KHTML, like Gecko) Chrome/89.0.4389.114 Safari/537.36" etag="RYuMt7OCRh5Z2rvWFfEM" version="15.5.4" type="embed"><diagram id="23iRSUPoRavnBvh4doch" name="Page-1"><mxGraphModel dx="4351" dy="641" grid="1" gridSize="10" guides="1" tooltips="1" connect="1" arrows="1" fold="1" page="0" pageScale="1" pageWidth="3300" pageHeight="4681" math="0" shadow="0"><root><mxCell id="0"/><mxCell id="1" parent="0"/><mxCell id="492" value="" style="rounded=0;whiteSpace=wrap;html=1;fillColor=none;dashed=1;strokeColor=#6D8764;strokeWidth=2;" vertex="1" parent="1"><mxGeometry x="980" y="1780" width="330" height="690" as="geometry"/></mxCell><mxCell id="134" value="" style="rounded=0;whiteSpace=wrap;html=1;dashed=1;fillColor=none;" parent="1" vertex="1"><mxGeometry x="-110" y="1372" width="370" height="382" as="geometry"/></mxCell><mxCell id="135" value="" style="rounded=0;whiteSpace=wrap;html=1;dashed=1;fillColor=none;" parent="1" vertex="1"><mxGeometry x="-110" y="1780" width="370" height="552" as="geometry"/></mxCell><mxCell id="149" value="" style="rounded=0;whiteSpace=wrap;html=1;dashed=1;fillColor=none;" parent="1" vertex="1"><mxGeometry x="-110" y="498" width="370" height="290" as="geometry"/></mxCell><mxCell id="375" value="" style="rounded=0;whiteSpace=wrap;html=1;strokeColor=#FFFFFF;strokeWidth=1;fillColor=none;dashed=1;" parent="1" vertex="1"><mxGeometry x="-2980" y="104" width="460" height="696" as="geometry"/></mxCell><mxCell id="240" value="" style="rounded=0;whiteSpace=wrap;html=1;fillColor=none;dashed=1;" parent="1" vertex="1"><mxGeometry x="-950" y="90" width="470" height="1090" as="geometry"/></mxCell><mxCell id="306" value="" style="rounded=0;whiteSpace=wrap;html=1;strokeColor=#FFFFFF;strokeWidth=1;fillColor=none;dashed=1;" parent="1" vertex="1"><mxGeometry x="-1690" y="94" width="490" height="1326" as="geometry"/></mxCell><mxCell id="133" value="" style="rounded=0;whiteSpace=wrap;html=1;dashed=1;fillColor=none;" parent="1" vertex="1"><mxGeometry x="-110" y="804" width="370" height="536" as="geometry"/></mxCell><mxCell id="132" value="" style="rounded=0;whiteSpace=wrap;html=1;dashed=1;fillColor=none;" parent="1" vertex="1"><mxGeometry x="-110" y="224" width="370" height="260" as="geometry"/></mxCell><mxCell id="79" value="" style="edgeStyle=orthogonalEdgeStyle;rounded=0;orthogonalLoop=1;jettySize=auto;html=1;" parent="1" source="77" target="78" edge="1"><mxGeometry relative="1" as="geometry"/></mxCell><mxCell id="77" value="pre check before start" style="rounded=0;whiteSpace=wrap;html=1;" parent="1" vertex="1"><mxGeometry x="110" y="144" width="120" height="60" as="geometry"/></mxCell><mxCell id="83" value="" style="edgeStyle=orthogonalEdgeStyle;rounded=0;orthogonalLoop=1;jettySize=auto;html=1;" parent="1" source="78" target="82" edge="1"><mxGeometry relative="1" as="geometry"/></mxCell><mxCell id="78" value="init destMgr" style="whiteSpace=wrap;html=1;rounded=0;" parent="1" vertex="1"><mxGeometry x="110" y="248" width="120" height="60" as="geometry"/></mxCell><mxCell id="85" value="" style="edgeStyle=orthogonalEdgeStyle;rounded=0;orthogonalLoop=1;jettySize=auto;html=1;" parent="1" source="82" target="84" edge="1"><mxGeometry relative="1" as="geometry"/></mxCell><mxCell id="142" value="" style="edgeStyle=orthogonalEdgeStyle;rounded=0;orthogonalLoop=1;jettySize=auto;html=1;" parent="1" source="82" target="141" edge="1"><mxGeometry relative="1" as="geometry"/></mxCell><mxCell id="82" value="find available server host" style="rhombus;whiteSpace=wrap;html=1;rounded=0;" parent="1" vertex="1"><mxGeometry x="130" y="378" width="80" height="80" as="geometry"/></mxCell><mxCell id="84" value="error" style="whiteSpace=wrap;html=1;rounded=0;fillColor=#e51400;fontColor=#ffffff;strokeColor=#B20000;" parent="1" vertex="1"><mxGeometry x="-50" y="388" width="120" height="60" as="geometry"/></mxCell><mxCell id="89" value="" style="edgeStyle=orthogonalEdgeStyle;rounded=0;orthogonalLoop=1;jettySize=auto;html=1;" parent="1" source="86" target="88" edge="1"><mxGeometry relative="1" as="geometry"/></mxCell><mxCell id="381" value="no" style="edgeLabel;html=1;align=center;verticalAlign=middle;resizable=0;points=[];" parent="89" vertex="1" connectable="0"><mxGeometry x="-0.1333" y="-1" relative="1" as="geometry"><mxPoint as="offset"/></mxGeometry></mxCell><mxCell id="91" value="" style="edgeStyle=orthogonalEdgeStyle;rounded=0;orthogonalLoop=1;jettySize=auto;html=1;entryX=0.5;entryY=0;entryDx=0;entryDy=0;" parent="1" source="86" target="97" edge="1"><mxGeometry relative="1" as="geometry"><mxPoint x="170" y="988" as="targetPoint"/></mxGeometry></mxCell><mxCell id="86" value="token exist" style="rhombus;whiteSpace=wrap;html=1;rounded=0;" parent="1" vertex="1"><mxGeometry x="130" y="828" width="80" height="80" as="geometry"/></mxCell><mxCell id="93" value="" style="edgeStyle=orthogonalEdgeStyle;rounded=0;orthogonalLoop=1;jettySize=auto;html=1;" parent="1" source="88" target="92" edge="1"><mxGeometry relative="1" as="geometry"/></mxCell><mxCell id="88" value="input token" style="whiteSpace=wrap;html=1;rounded=0;" parent="1" vertex="1"><mxGeometry x="-50" y="838" width="120" height="60" as="geometry"/></mxCell><mxCell id="94" style="edgeStyle=orthogonalEdgeStyle;rounded=0;orthogonalLoop=1;jettySize=auto;html=1;exitX=0;exitY=0.5;exitDx=0;exitDy=0;entryX=0;entryY=0.5;entryDx=0;entryDy=0;" parent="1" source="92" target="88" edge="1"><mxGeometry relative="1" as="geometry"/></mxCell><mxCell id="96" value="no" style="edgeLabel;html=1;align=center;verticalAlign=middle;resizable=0;points=[];" parent="94" vertex="1" connectable="0"><mxGeometry x="-0.0091" relative="1" as="geometry"><mxPoint as="offset"/></mxGeometry></mxCell><mxCell id="95" style="edgeStyle=orthogonalEdgeStyle;rounded=0;orthogonalLoop=1;jettySize=auto;html=1;exitX=1;exitY=0.5;exitDx=0;exitDy=0;entryX=0;entryY=0.5;entryDx=0;entryDy=0;" parent="1" source="92" target="97" edge="1"><mxGeometry relative="1" as="geometry"><mxPoint x="130" y="1028" as="targetPoint"/></mxGeometry></mxCell><mxCell id="380" value="yes" style="edgeLabel;html=1;align=center;verticalAlign=middle;resizable=0;points=[];" parent="95" vertex="1" connectable="0"><mxGeometry x="-0.1667" y="-1" relative="1" as="geometry"><mxPoint as="offset"/></mxGeometry></mxCell><mxCell id="92" value="success" style="rhombus;whiteSpace=wrap;html=1;rounded=0;" parent="1" vertex="1"><mxGeometry x="-30" y="988" width="80" height="80" as="geometry"/></mxCell><mxCell id="99" value="" style="edgeStyle=orthogonalEdgeStyle;rounded=0;orthogonalLoop=1;jettySize=auto;html=1;" parent="1" source="97" target="98" edge="1"><mxGeometry relative="1" as="geometry"/></mxCell><mxCell id="97" value="check token on server" style="rounded=0;whiteSpace=wrap;html=1;" parent="1" vertex="1"><mxGeometry x="110" y="998" width="120" height="60" as="geometry"/></mxCell><mxCell id="100" style="edgeStyle=orthogonalEdgeStyle;rounded=0;orthogonalLoop=1;jettySize=auto;html=1;exitX=0;exitY=0.5;exitDx=0;exitDy=0;entryX=0;entryY=0.5;entryDx=0;entryDy=0;" parent="1" source="98" target="88" edge="1"><mxGeometry relative="1" as="geometry"><Array as="points"><mxPoint x="-70" y="1168"/><mxPoint x="-70" y="868"/></Array></mxGeometry></mxCell><mxCell id="101" value="no" style="edgeLabel;html=1;align=center;verticalAlign=middle;resizable=0;points=[];" parent="100" vertex="1" connectable="0"><mxGeometry x="-0.7423" y="2" relative="1" as="geometry"><mxPoint as="offset"/></mxGeometry></mxCell><mxCell id="458" value="" style="edgeStyle=orthogonalEdgeStyle;rounded=0;orthogonalLoop=1;jettySize=auto;html=1;" edge="1" parent="1" source="98" target="457"><mxGeometry relative="1" as="geometry"/></mxCell><mxCell id="98" value="correct" style="rhombus;whiteSpace=wrap;html=1;rounded=0;" parent="1" vertex="1"><mxGeometry x="130" y="1128" width="80" height="80" as="geometry"/></mxCell><mxCell id="105" value="" style="edgeStyle=orthogonalEdgeStyle;rounded=0;orthogonalLoop=1;jettySize=auto;html=1;" parent="1" source="102" target="104" edge="1"><mxGeometry relative="1" as="geometry"/></mxCell><mxCell id="107" value="" style="edgeStyle=orthogonalEdgeStyle;rounded=0;orthogonalLoop=1;jettySize=auto;html=1;" parent="1" source="102" target="106" edge="1"><mxGeometry relative="1" as="geometry"/></mxCell><mxCell id="102" value="port exist" style="rhombus;whiteSpace=wrap;html=1;rounded=0;" parent="1" vertex="1"><mxGeometry x="130" y="1402" width="80" height="80" as="geometry"/></mxCell><mxCell id="109" value="" style="edgeStyle=orthogonalEdgeStyle;rounded=0;orthogonalLoop=1;jettySize=auto;html=1;" parent="1" source="104" target="108" edge="1"><mxGeometry relative="1" as="geometry"/></mxCell><mxCell id="104" value="input port" style="whiteSpace=wrap;html=1;rounded=0;" parent="1" vertex="1"><mxGeometry x="-50" y="1412" width="120" height="60" as="geometry"/></mxCell><mxCell id="114" style="edgeStyle=orthogonalEdgeStyle;rounded=0;orthogonalLoop=1;jettySize=auto;html=1;exitX=0;exitY=0.5;exitDx=0;exitDy=0;entryX=0;entryY=0.5;entryDx=0;entryDy=0;" parent="1" source="106" target="104" edge="1"><mxGeometry relative="1" as="geometry"/></mxCell><mxCell id="455" value="" style="edgeStyle=orthogonalEdgeStyle;rounded=0;orthogonalLoop=1;jettySize=auto;html=1;" edge="1" parent="1" source="106" target="454"><mxGeometry relative="1" as="geometry"/></mxCell><mxCell id="106" value="check port correct" style="rhombus;whiteSpace=wrap;html=1;rounded=0;" parent="1" vertex="1"><mxGeometry x="130" y="1562" width="80" height="80" as="geometry"/></mxCell><mxCell id="110" style="edgeStyle=orthogonalEdgeStyle;rounded=0;orthogonalLoop=1;jettySize=auto;html=1;exitX=0;exitY=0.5;exitDx=0;exitDy=0;entryX=0;entryY=0.5;entryDx=0;entryDy=0;" parent="1" source="108" target="104" edge="1"><mxGeometry relative="1" as="geometry"/></mxCell><mxCell id="113" style="edgeStyle=orthogonalEdgeStyle;rounded=0;orthogonalLoop=1;jettySize=auto;html=1;exitX=1;exitY=0.5;exitDx=0;exitDy=0;entryX=0.5;entryY=0;entryDx=0;entryDy=0;" parent="1" source="108" target="106" edge="1"><mxGeometry relative="1" as="geometry"/></mxCell><mxCell id="108" value="success" style="rhombus;whiteSpace=wrap;html=1;rounded=0;" parent="1" vertex="1"><mxGeometry x="-30" y="1498" width="80" height="80" as="geometry"/></mxCell><mxCell id="118" value="" style="edgeStyle=orthogonalEdgeStyle;rounded=0;orthogonalLoop=1;jettySize=auto;html=1;" parent="1" source="115" target="117" edge="1"><mxGeometry relative="1" as="geometry"/></mxCell><mxCell id="120" value="" style="edgeStyle=orthogonalEdgeStyle;rounded=0;orthogonalLoop=1;jettySize=auto;html=1;" parent="1" source="115" target="119" edge="1"><mxGeometry relative="1" as="geometry"/></mxCell><mxCell id="115" value="check provide folder exist" style="rhombus;whiteSpace=wrap;html=1;rounded=0;" parent="1" vertex="1"><mxGeometry x="130" y="1810" width="80" height="80" as="geometry"/></mxCell><mxCell id="125" value="" style="edgeStyle=orthogonalEdgeStyle;rounded=0;orthogonalLoop=1;jettySize=auto;html=1;" parent="1" source="117" target="124" edge="1"><mxGeometry relative="1" as="geometry"/></mxCell><mxCell id="117" value="input path and size" style="whiteSpace=wrap;html=1;rounded=0;" parent="1" vertex="1"><mxGeometry x="-50" y="1820" width="120" height="60" as="geometry"/></mxCell><mxCell id="122" value="" style="edgeStyle=orthogonalEdgeStyle;rounded=0;orthogonalLoop=1;jettySize=auto;html=1;" parent="1" source="119" target="121" edge="1"><mxGeometry relative="1" as="geometry"/></mxCell><mxCell id="119" value="check each path auth and size&lt;br&gt;(in diskMgr flow)" style="whiteSpace=wrap;html=1;rounded=0;fillColor=#6a00ff;fontColor=#ffffff;strokeColor=#3700CC;" parent="1" vertex="1"><mxGeometry x="110" y="1980" width="120" height="60" as="geometry"/></mxCell><mxCell id="123" style="edgeStyle=orthogonalEdgeStyle;rounded=0;orthogonalLoop=1;jettySize=auto;html=1;exitX=0;exitY=0.5;exitDx=0;exitDy=0;entryX=0;entryY=0.5;entryDx=0;entryDy=0;" parent="1" source="121" target="117" edge="1"><mxGeometry relative="1" as="geometry"/></mxCell><mxCell id="129" value="" style="edgeStyle=orthogonalEdgeStyle;rounded=0;orthogonalLoop=1;jettySize=auto;html=1;" parent="1" source="121" target="128" edge="1"><mxGeometry relative="1" as="geometry"/></mxCell><mxCell id="121" value="pass" style="rhombus;whiteSpace=wrap;html=1;rounded=0;" parent="1" vertex="1"><mxGeometry x="130" y="2110" width="80" height="80" as="geometry"/></mxCell><mxCell id="126" style="edgeStyle=orthogonalEdgeStyle;rounded=0;orthogonalLoop=1;jettySize=auto;html=1;exitX=0;exitY=0.5;exitDx=0;exitDy=0;entryX=0;entryY=0.5;entryDx=0;entryDy=0;" parent="1" source="124" target="117" edge="1"><mxGeometry relative="1" as="geometry"/></mxCell><mxCell id="127" style="edgeStyle=orthogonalEdgeStyle;rounded=0;orthogonalLoop=1;jettySize=auto;html=1;exitX=1;exitY=0.5;exitDx=0;exitDy=0;entryX=0;entryY=0.5;entryDx=0;entryDy=0;" parent="1" source="124" target="119" edge="1"><mxGeometry relative="1" as="geometry"/></mxCell><mxCell id="124" value="success" style="rhombus;whiteSpace=wrap;html=1;rounded=0;" parent="1" vertex="1"><mxGeometry x="-30" y="1970" width="80" height="80" as="geometry"/></mxCell><mxCell id="453" style="edgeStyle=orthogonalEdgeStyle;rounded=0;orthogonalLoop=1;jettySize=auto;html=1;exitX=0.5;exitY=1;exitDx=0;exitDy=0;entryX=0.5;entryY=0;entryDx=0;entryDy=0;" edge="1" parent="1" source="128" target="130"><mxGeometry relative="1" as="geometry"/></mxCell><mxCell id="128" value="save config" style="whiteSpace=wrap;html=1;rounded=0;" parent="1" vertex="1"><mxGeometry x="110" y="2252" width="120" height="60" as="geometry"/></mxCell><mxCell id="425" style="edgeStyle=orthogonalEdgeStyle;rounded=0;orthogonalLoop=1;jettySize=auto;html=1;exitX=1;exitY=0.5;exitDx=0;exitDy=0;entryX=0;entryY=0.5;entryDx=0;entryDy=0;strokeColor=#FFFFFF;strokeWidth=1;dashed=1;" parent="1" source="130" target="423" edge="1"><mxGeometry relative="1" as="geometry"><Array as="points"><mxPoint x="400" y="2380"/><mxPoint x="400" y="174"/></Array></mxGeometry></mxCell><mxCell id="130" value="start service" style="whiteSpace=wrap;html=1;rounded=0;" parent="1" vertex="1"><mxGeometry x="110" y="2350" width="120" height="60" as="geometry"/></mxCell><mxCell id="136" value="dest" style="text;html=1;strokeColor=none;fillColor=none;align=center;verticalAlign=middle;whiteSpace=wrap;rounded=0;dashed=1;" parent="1" vertex="1"><mxGeometry x="-110" y="224" width="60" height="30" as="geometry"/></mxCell><mxCell id="137" value="token" style="text;html=1;strokeColor=none;fillColor=none;align=center;verticalAlign=middle;whiteSpace=wrap;rounded=0;dashed=1;" parent="1" vertex="1"><mxGeometry x="-110" y="804" width="60" height="30" as="geometry"/></mxCell><mxCell id="138" value="port" style="text;html=1;strokeColor=none;fillColor=none;align=center;verticalAlign=middle;whiteSpace=wrap;rounded=0;dashed=1;" parent="1" vertex="1"><mxGeometry x="-110" y="1372" width="60" height="30" as="geometry"/></mxCell><mxCell id="139" value="provide folder" style="text;html=1;strokeColor=none;fillColor=none;align=center;verticalAlign=middle;whiteSpace=wrap;rounded=0;dashed=1;" parent="1" vertex="1"><mxGeometry x="-110" y="1780" width="130" height="30" as="geometry"/></mxCell><mxCell id="144" value="" style="edgeStyle=orthogonalEdgeStyle;rounded=0;orthogonalLoop=1;jettySize=auto;html=1;" parent="1" source="141" target="143" edge="1"><mxGeometry relative="1" as="geometry"/></mxCell><mxCell id="141" value="check version" style="whiteSpace=wrap;html=1;rounded=0;" parent="1" vertex="1"><mxGeometry x="110" y="548" width="120" height="60" as="geometry"/></mxCell><mxCell id="146" style="edgeStyle=orthogonalEdgeStyle;rounded=0;orthogonalLoop=1;jettySize=auto;html=1;exitX=0.5;exitY=1;exitDx=0;exitDy=0;entryX=0.5;entryY=0;entryDx=0;entryDy=0;" parent="1" source="143" target="86" edge="1"><mxGeometry relative="1" as="geometry"/></mxCell><mxCell id="148" value="" style="edgeStyle=orthogonalEdgeStyle;rounded=0;orthogonalLoop=1;jettySize=auto;html=1;" parent="1" source="143" target="147" edge="1"><mxGeometry relative="1" as="geometry"/></mxCell><mxCell id="143" value="latest version" style="rhombus;whiteSpace=wrap;html=1;rounded=0;" parent="1" vertex="1"><mxGeometry x="130" y="678" width="80" height="80" as="geometry"/></mxCell><mxCell id="147" value="auto update" style="whiteSpace=wrap;html=1;rounded=0;fillColor=#f0a30a;fontColor=#000000;strokeColor=#BD7000;" parent="1" vertex="1"><mxGeometry x="-50" y="688" width="120" height="60" as="geometry"/></mxCell><mxCell id="153" value="" style="edgeStyle=orthogonalEdgeStyle;rounded=0;orthogonalLoop=1;jettySize=auto;html=1;" parent="1" source="151" target="152" edge="1"><mxGeometry relative="1" as="geometry"/></mxCell><mxCell id="151" value="add path with cli" style="rounded=0;whiteSpace=wrap;html=1;" parent="1" vertex="1"><mxGeometry x="-1340" y="134" width="120" height="60" as="geometry"/></mxCell><mxCell id="155" value="" style="edgeStyle=orthogonalEdgeStyle;rounded=0;orthogonalLoop=1;jettySize=auto;html=1;" parent="1" source="152" target="154" edge="1"><mxGeometry relative="1" as="geometry"/></mxCell><mxCell id="152" value="read exist path from config" style="whiteSpace=wrap;html=1;rounded=0;" parent="1" vertex="1"><mxGeometry x="-1340" y="224" width="120" height="60" as="geometry"/></mxCell><mxCell id="159" value="" style="edgeStyle=orthogonalEdgeStyle;rounded=0;orthogonalLoop=1;jettySize=auto;html=1;" parent="1" source="154" target="158" edge="1"><mxGeometry relative="1" as="geometry"/></mxCell><mxCell id="154" value="read path from cli" style="whiteSpace=wrap;html=1;rounded=0;" parent="1" vertex="1"><mxGeometry x="-1340" y="314" width="120" height="60" as="geometry"/></mxCell><mxCell id="161" value="" style="edgeStyle=orthogonalEdgeStyle;rounded=0;orthogonalLoop=1;jettySize=auto;html=1;" parent="1" source="158" target="160" edge="1"><mxGeometry relative="1" as="geometry"/></mxCell><mxCell id="165" value="" style="edgeStyle=orthogonalEdgeStyle;rounded=0;orthogonalLoop=1;jettySize=auto;html=1;" parent="1" source="158" target="164" edge="1"><mxGeometry relative="1" as="geometry"/></mxCell><mxCell id="170" value="no" style="edgeLabel;html=1;align=center;verticalAlign=middle;resizable=0;points=[];" parent="165" vertex="1" connectable="0"><mxGeometry x="0.0667" y="1" relative="1" as="geometry"><mxPoint as="offset"/></mxGeometry></mxCell><mxCell id="158" value="is abs path" style="rhombus;whiteSpace=wrap;html=1;rounded=0;" parent="1" vertex="1"><mxGeometry x="-1320" y="414" width="80" height="80" as="geometry"/></mxCell><mxCell id="163" value="" style="edgeStyle=orthogonalEdgeStyle;rounded=0;orthogonalLoop=1;jettySize=auto;html=1;" parent="1" source="160" target="162" edge="1"><mxGeometry relative="1" as="geometry"/></mxCell><mxCell id="160" value="check is already exist or not" style="whiteSpace=wrap;html=1;rounded=0;" parent="1" vertex="1"><mxGeometry x="-1340" y="534" width="120" height="60" as="geometry"/></mxCell><mxCell id="168" value="" style="edgeStyle=orthogonalEdgeStyle;rounded=0;orthogonalLoop=1;jettySize=auto;html=1;" parent="1" source="162" target="167" edge="1"><mxGeometry relative="1" as="geometry"/></mxCell><mxCell id="169" value="yes" style="edgeLabel;html=1;align=center;verticalAlign=middle;resizable=0;points=[];" parent="168" vertex="1" connectable="0"><mxGeometry x="-0.0333" y="4" relative="1" as="geometry"><mxPoint as="offset"/></mxGeometry></mxCell><mxCell id="172" value="" style="edgeStyle=orthogonalEdgeStyle;rounded=0;orthogonalLoop=1;jettySize=auto;html=1;" parent="1" source="162" target="171" edge="1"><mxGeometry relative="1" as="geometry"/></mxCell><mxCell id="162" value="exist" style="rhombus;whiteSpace=wrap;html=1;rounded=0;" parent="1" vertex="1"><mxGeometry x="-1320" y="624" width="80" height="80" as="geometry"/></mxCell><mxCell id="166" style="edgeStyle=orthogonalEdgeStyle;rounded=0;orthogonalLoop=1;jettySize=auto;html=1;exitX=0.5;exitY=1;exitDx=0;exitDy=0;entryX=0;entryY=0.5;entryDx=0;entryDy=0;" parent="1" source="164" target="160" edge="1"><mxGeometry relative="1" as="geometry"/></mxCell><mxCell id="164" value="transfer to abs path" style="whiteSpace=wrap;html=1;rounded=0;" parent="1" vertex="1"><mxGeometry x="-1500" y="424" width="120" height="60" as="geometry"/></mxCell><mxCell id="167" value="error&lt;br&gt;if want to modify size, remove it first and add again" style="whiteSpace=wrap;html=1;rounded=0;fillColor=#e51400;fontColor=#ffffff;strokeColor=#B20000;" parent="1" vertex="1"><mxGeometry x="-1550" y="634" width="120" height="60" as="geometry"/></mxCell><mxCell id="174" value="" style="edgeStyle=orthogonalEdgeStyle;rounded=0;orthogonalLoop=1;jettySize=auto;html=1;" parent="1" source="171" target="173" edge="1"><mxGeometry relative="1" as="geometry"/></mxCell><mxCell id="171" value="input sizeGB" style="whiteSpace=wrap;html=1;rounded=0;" parent="1" vertex="1"><mxGeometry x="-1340" y="744" width="120" height="60" as="geometry"/></mxCell><mxCell id="175" style="edgeStyle=orthogonalEdgeStyle;rounded=0;orthogonalLoop=1;jettySize=auto;html=1;exitX=0;exitY=0.5;exitDx=0;exitDy=0;entryX=0;entryY=0.5;entryDx=0;entryDy=0;" parent="1" source="173" target="171" edge="1"><mxGeometry relative="1" as="geometry"/></mxCell><mxCell id="298" value="" style="edgeStyle=orthogonalEdgeStyle;rounded=0;orthogonalLoop=1;jettySize=auto;html=1;" parent="1" source="173" target="297" edge="1"><mxGeometry relative="1" as="geometry"/></mxCell><mxCell id="173" value="sizeGB&amp;gt;40" style="rhombus;whiteSpace=wrap;html=1;rounded=0;" parent="1" vertex="1"><mxGeometry x="-1320" y="834" width="80" height="80" as="geometry"/></mxCell><mxCell id="212" value="" style="edgeStyle=orthogonalEdgeStyle;rounded=0;orthogonalLoop=1;jettySize=auto;html=1;" parent="1" source="210" target="211" edge="1"><mxGeometry relative="1" as="geometry"/></mxCell><mxCell id="210" value="remove path with cil" style="rounded=0;whiteSpace=wrap;html=1;fillColor=none;" parent="1" vertex="1"><mxGeometry x="-670" y="130" width="120" height="60" as="geometry"/></mxCell><mxCell id="214" value="" style="edgeStyle=orthogonalEdgeStyle;rounded=0;orthogonalLoop=1;jettySize=auto;html=1;" parent="1" source="211" target="213" edge="1"><mxGeometry relative="1" as="geometry"/></mxCell><mxCell id="211" value="read exist path from config" style="whiteSpace=wrap;html=1;rounded=0;fillColor=none;" parent="1" vertex="1"><mxGeometry x="-670" y="240" width="120" height="60" as="geometry"/></mxCell><mxCell id="216" value="" style="edgeStyle=orthogonalEdgeStyle;rounded=0;orthogonalLoop=1;jettySize=auto;html=1;" parent="1" source="213" target="215" edge="1"><mxGeometry relative="1" as="geometry"/></mxCell><mxCell id="213" value="read path from cli" style="whiteSpace=wrap;html=1;rounded=0;fillColor=none;" parent="1" vertex="1"><mxGeometry x="-670" y="380" width="120" height="60" as="geometry"/></mxCell><mxCell id="219" style="edgeStyle=orthogonalEdgeStyle;rounded=0;orthogonalLoop=1;jettySize=auto;html=1;exitX=0;exitY=0.5;exitDx=0;exitDy=0;entryX=1;entryY=0.5;entryDx=0;entryDy=0;" parent="1" source="215" target="217" edge="1"><mxGeometry relative="1" as="geometry"/></mxCell><mxCell id="221" style="edgeStyle=orthogonalEdgeStyle;rounded=0;orthogonalLoop=1;jettySize=auto;html=1;exitX=0.5;exitY=1;exitDx=0;exitDy=0;entryX=0.5;entryY=0;entryDx=0;entryDy=0;" parent="1" source="215" target="218" edge="1"><mxGeometry relative="1" as="geometry"/></mxCell><mxCell id="215" value="is abs path" style="rhombus;whiteSpace=wrap;html=1;rounded=0;fillColor=none;" parent="1" vertex="1"><mxGeometry x="-650" y="510" width="80" height="80" as="geometry"/></mxCell><mxCell id="220" style="edgeStyle=orthogonalEdgeStyle;rounded=0;orthogonalLoop=1;jettySize=auto;html=1;exitX=0.5;exitY=1;exitDx=0;exitDy=0;entryX=0;entryY=0.5;entryDx=0;entryDy=0;" parent="1" source="217" target="218" edge="1"><mxGeometry relative="1" as="geometry"/></mxCell><mxCell id="217" value="transfer to abs path" style="whiteSpace=wrap;html=1;rounded=0;" parent="1" vertex="1"><mxGeometry x="-810" y="520" width="120" height="60" as="geometry"/></mxCell><mxCell id="223" value="" style="edgeStyle=orthogonalEdgeStyle;rounded=0;orthogonalLoop=1;jettySize=auto;html=1;" parent="1" source="218" target="222" edge="1"><mxGeometry relative="1" as="geometry"/></mxCell><mxCell id="218" value="check is already exist or not" style="whiteSpace=wrap;html=1;rounded=0;" parent="1" vertex="1"><mxGeometry x="-670" y="640" width="120" height="60" as="geometry"/></mxCell><mxCell id="225" value="" style="edgeStyle=orthogonalEdgeStyle;rounded=0;orthogonalLoop=1;jettySize=auto;html=1;" parent="1" source="222" target="224" edge="1"><mxGeometry relative="1" as="geometry"/></mxCell><mxCell id="227" value="" style="edgeStyle=orthogonalEdgeStyle;rounded=0;orthogonalLoop=1;jettySize=auto;html=1;" parent="1" source="222" target="226" edge="1"><mxGeometry relative="1" as="geometry"/></mxCell><mxCell id="222" value="exist" style="rhombus;whiteSpace=wrap;html=1;rounded=0;" parent="1" vertex="1"><mxGeometry x="-650" y="770" width="80" height="80" as="geometry"/></mxCell><mxCell id="308" style="edgeStyle=orthogonalEdgeStyle;rounded=0;orthogonalLoop=1;jettySize=auto;html=1;exitX=0.5;exitY=1;exitDx=0;exitDy=0;entryX=0.5;entryY=0;entryDx=0;entryDy=0;strokeColor=#FFFFFF;strokeWidth=1;" parent="1" source="224" target="307" edge="1"><mxGeometry relative="1" as="geometry"/></mxCell><mxCell id="224" value="remove from config" style="whiteSpace=wrap;html=1;rounded=0;fillColor=#60a917;fontColor=#ffffff;strokeColor=#2D7600;" parent="1" vertex="1"><mxGeometry x="-670" y="940" width="120" height="60" as="geometry"/></mxCell><mxCell id="226" value="error&lt;br&gt;not exist" style="whiteSpace=wrap;html=1;rounded=0;fillColor=#e51400;fontColor=#ffffff;strokeColor=#B20000;" parent="1" vertex="1"><mxGeometry x="-830" y="780" width="120" height="60" as="geometry"/></mxCell><mxCell id="229" value="./meson config set addpath=........." style="text;html=1;strokeColor=none;fillColor=none;align=center;verticalAlign=middle;whiteSpace=wrap;rounded=0;" parent="1" vertex="1"><mxGeometry x="-1700" y="90" width="240" height="50" as="geometry"/></mxCell><mxCell id="235" value="" style="edgeStyle=orthogonalEdgeStyle;rounded=0;orthogonalLoop=1;jettySize=auto;html=1;" parent="1" source="232" target="234" edge="1"><mxGeometry relative="1" as="geometry"/></mxCell><mxCell id="232" value="save config" style="whiteSpace=wrap;html=1;rounded=0;strokeColor=#FFFFFF;fillColor=none;" parent="1" vertex="1"><mxGeometry x="-1340" y="1220" width="120" height="60" as="geometry"/></mxCell><mxCell id="234" value="remind restart node" style="whiteSpace=wrap;html=1;rounded=0;strokeColor=#FFFFFF;fillColor=none;" parent="1" vertex="1"><mxGeometry x="-1340" y="1330" width="120" height="60" as="geometry"/></mxCell><mxCell id="241" value="./meson config set removepath=........." style="text;html=1;strokeColor=none;fillColor=none;align=center;verticalAlign=middle;whiteSpace=wrap;rounded=0;" parent="1" vertex="1"><mxGeometry x="-950" y="89" width="240" height="50" as="geometry"/></mxCell><mxCell id="301" style="edgeStyle=orthogonalEdgeStyle;orthogonalLoop=1;jettySize=auto;html=1;exitX=0.5;exitY=1;exitDx=0;exitDy=0;entryX=0.5;entryY=0;entryDx=0;entryDy=0;strokeColor=#FFFFFF;strokeWidth=1;rounded=0;" parent="1" source="297" target="300" edge="1"><mxGeometry relative="1" as="geometry"/></mxCell><mxCell id="297" value="check path auth and size&lt;br&gt;(in diskMgr flow)" style="whiteSpace=wrap;html=1;rounded=0;fillColor=#6A00FF;fontColor=#ffffff;strokeColor=#3700CC;" parent="1" vertex="1"><mxGeometry x="-1340" y="960" width="120" height="60" as="geometry"/></mxCell><mxCell id="302" style="edgeStyle=orthogonalEdgeStyle;rounded=0;orthogonalLoop=1;jettySize=auto;html=1;exitX=0.5;exitY=1;exitDx=0;exitDy=0;entryX=0.5;entryY=0;entryDx=0;entryDy=0;strokeColor=#FFFFFF;strokeWidth=1;" parent="1" source="300" target="232" edge="1"><mxGeometry relative="1" as="geometry"/></mxCell><mxCell id="305" value="" style="edgeStyle=orthogonalEdgeStyle;rounded=0;orthogonalLoop=1;jettySize=auto;html=1;strokeColor=#FFFFFF;strokeWidth=1;" parent="1" source="300" target="304" edge="1"><mxGeometry relative="1" as="geometry"/></mxCell><mxCell id="300" value="success" style="rhombus;whiteSpace=wrap;html=1;strokeWidth=2;fillColor=none;" parent="1" vertex="1"><mxGeometry x="-1320" y="1080" width="80" height="80" as="geometry"/></mxCell><mxCell id="304" value="error" style="whiteSpace=wrap;html=1;strokeWidth=2;fillColor=#e51400;fontColor=#ffffff;strokeColor=#B20000;" parent="1" vertex="1"><mxGeometry x="-1560" y="1090" width="120" height="60" as="geometry"/></mxCell><mxCell id="307" value="save config" style="whiteSpace=wrap;html=1;rounded=0;strokeColor=#FFFFFF;fillColor=none;" parent="1" vertex="1"><mxGeometry x="-670" y="1064" width="120" height="60" as="geometry"/></mxCell><mxCell id="336" value="" style="edgeStyle=orthogonalEdgeStyle;rounded=0;orthogonalLoop=1;jettySize=auto;html=1;strokeColor=#FFFFFF;strokeWidth=1;" parent="1" source="309" target="335" edge="1"><mxGeometry relative="1" as="geometry"/></mxCell><mxCell id="309" value="modify token" style="rounded=0;whiteSpace=wrap;html=1;strokeColor=#FFFFFF;strokeWidth=1;fillColor=none;" parent="1" vertex="1"><mxGeometry x="-2130" y="134" width="120" height="60" as="geometry"/></mxCell><mxCell id="310" value="./meson config set -token=..." style="text;html=1;strokeColor=none;fillColor=none;align=center;verticalAlign=middle;whiteSpace=wrap;rounded=0;" parent="1" vertex="1"><mxGeometry x="-2420" y="114" width="240" height="50" as="geometry"/></mxCell><mxCell id="327" value="" style="rounded=0;whiteSpace=wrap;html=1;dashed=1;fillColor=none;" parent="1" vertex="1"><mxGeometry x="-2350" y="534" width="370" height="260" as="geometry"/></mxCell><mxCell id="328" value="" style="edgeStyle=orthogonalEdgeStyle;rounded=0;orthogonalLoop=1;jettySize=auto;html=1;" parent="1" source="329" target="331" edge="1"><mxGeometry relative="1" as="geometry"/></mxCell><mxCell id="329" value="init destMgr" style="whiteSpace=wrap;html=1;rounded=0;" parent="1" vertex="1"><mxGeometry x="-2130" y="558" width="120" height="60" as="geometry"/></mxCell><mxCell id="330" value="" style="edgeStyle=orthogonalEdgeStyle;rounded=0;orthogonalLoop=1;jettySize=auto;html=1;" parent="1" source="331" target="332" edge="1"><mxGeometry relative="1" as="geometry"/></mxCell><mxCell id="343" value="" style="edgeStyle=orthogonalEdgeStyle;rounded=0;orthogonalLoop=1;jettySize=auto;html=1;strokeColor=#FFFFFF;strokeWidth=1;" parent="1" source="331" target="342" edge="1"><mxGeometry relative="1" as="geometry"/></mxCell><mxCell id="331" value="find available server host" style="rhombus;whiteSpace=wrap;html=1;rounded=0;" parent="1" vertex="1"><mxGeometry x="-2110" y="688" width="80" height="80" as="geometry"/></mxCell><mxCell id="332" value="error" style="whiteSpace=wrap;html=1;rounded=0;fillColor=#e51400;fontColor=#ffffff;strokeColor=#B20000;" parent="1" vertex="1"><mxGeometry x="-2290" y="698" width="120" height="60" as="geometry"/></mxCell><mxCell id="333" value="dest" style="text;html=1;strokeColor=none;fillColor=none;align=center;verticalAlign=middle;whiteSpace=wrap;rounded=0;dashed=1;" parent="1" vertex="1"><mxGeometry x="-2350" y="534" width="60" height="30" as="geometry"/></mxCell><mxCell id="338" value="" style="edgeStyle=orthogonalEdgeStyle;rounded=0;orthogonalLoop=1;jettySize=auto;html=1;strokeColor=#FFFFFF;strokeWidth=1;" parent="1" source="335" target="337" edge="1"><mxGeometry relative="1" as="geometry"/></mxCell><mxCell id="335" value="read from cli" style="whiteSpace=wrap;html=1;rounded=0;strokeColor=#FFFFFF;strokeWidth=1;fillColor=none;" parent="1" vertex="1"><mxGeometry x="-2130" y="274" width="120" height="60" as="geometry"/></mxCell><mxCell id="340" value="" style="edgeStyle=orthogonalEdgeStyle;rounded=0;orthogonalLoop=1;jettySize=auto;html=1;strokeColor=#FFFFFF;strokeWidth=1;" parent="1" source="337" target="339" edge="1"><mxGeometry relative="1" as="geometry"/></mxCell><mxCell id="341" style="edgeStyle=orthogonalEdgeStyle;rounded=0;orthogonalLoop=1;jettySize=auto;html=1;exitX=0.5;exitY=1;exitDx=0;exitDy=0;entryX=0.5;entryY=0;entryDx=0;entryDy=0;strokeColor=#FFFFFF;strokeWidth=1;" parent="1" source="337" target="329" edge="1"><mxGeometry relative="1" as="geometry"/></mxCell><mxCell id="337" value="basic check" style="rhombus;whiteSpace=wrap;html=1;rounded=0;strokeColor=#FFFFFF;strokeWidth=1;fillColor=none;" parent="1" vertex="1"><mxGeometry x="-2110" y="404" width="80" height="80" as="geometry"/></mxCell><mxCell id="339" value="error" style="whiteSpace=wrap;html=1;rounded=0;strokeColor=#B20000;strokeWidth=1;fillColor=#e51400;fontColor=#ffffff;" parent="1" vertex="1"><mxGeometry x="-2290" y="414" width="120" height="60" as="geometry"/></mxCell><mxCell id="345" value="" style="edgeStyle=orthogonalEdgeStyle;rounded=0;orthogonalLoop=1;jettySize=auto;html=1;strokeColor=#FFFFFF;strokeWidth=1;" parent="1" source="342" target="344" edge="1"><mxGeometry relative="1" as="geometry"/></mxCell><mxCell id="342" value="check token on sever" style="whiteSpace=wrap;html=1;rounded=0;" parent="1" vertex="1"><mxGeometry x="-2130" y="858" width="120" height="60" as="geometry"/></mxCell><mxCell id="347" value="" style="edgeStyle=orthogonalEdgeStyle;rounded=0;orthogonalLoop=1;jettySize=auto;html=1;strokeColor=#FFFFFF;strokeWidth=1;" parent="1" source="344" target="346" edge="1"><mxGeometry relative="1" as="geometry"/></mxCell><mxCell id="349" value="" style="edgeStyle=orthogonalEdgeStyle;rounded=0;orthogonalLoop=1;jettySize=auto;html=1;strokeColor=#FFFFFF;strokeWidth=1;" parent="1" source="344" target="348" edge="1"><mxGeometry relative="1" as="geometry"/></mxCell><mxCell id="344" value="correct" style="rhombus;whiteSpace=wrap;html=1;rounded=0;" parent="1" vertex="1"><mxGeometry x="-2110" y="988" width="80" height="80" as="geometry"/></mxCell><mxCell id="346" value="error" style="whiteSpace=wrap;html=1;rounded=0;" parent="1" vertex="1"><mxGeometry x="-2290" y="998" width="120" height="60" as="geometry"/></mxCell><mxCell id="348" value="save token config" style="whiteSpace=wrap;html=1;rounded=0;" parent="1" vertex="1"><mxGeometry x="-2130" y="1158" width="120" height="60" as="geometry"/></mxCell><mxCell id="350" value="" style="rounded=0;whiteSpace=wrap;html=1;strokeColor=#FFFFFF;strokeWidth=1;fillColor=none;dashed=1;" parent="1" vertex="1"><mxGeometry x="-2410" y="104" width="460" height="1146" as="geometry"/></mxCell><mxCell id="351" value="" style="edgeStyle=orthogonalEdgeStyle;rounded=0;orthogonalLoop=1;jettySize=auto;html=1;strokeColor=#FFFFFF;strokeWidth=1;" parent="1" source="352" target="363" edge="1"><mxGeometry relative="1" as="geometry"/></mxCell><mxCell id="352" value="modify config" style="rounded=0;whiteSpace=wrap;html=1;strokeColor=#FFFFFF;strokeWidth=1;fillColor=none;" parent="1" vertex="1"><mxGeometry x="-2700" y="134" width="120" height="60" as="geometry"/></mxCell><mxCell id="353" value="./meson config set -port=...&lt;br&gt;-dest=...&lt;br&gt;-log_level=...&lt;br&gt;........" style="text;html=1;strokeColor=none;fillColor=none;align=right;verticalAlign=middle;whiteSpace=wrap;rounded=0;" parent="1" vertex="1"><mxGeometry x="-2980" y="104" width="200" height="86" as="geometry"/></mxCell><mxCell id="362" value="" style="edgeStyle=orthogonalEdgeStyle;rounded=0;orthogonalLoop=1;jettySize=auto;html=1;strokeColor=#FFFFFF;strokeWidth=1;" parent="1" source="363" target="366" edge="1"><mxGeometry relative="1" as="geometry"/></mxCell><mxCell id="363" value="read from cli" style="whiteSpace=wrap;html=1;rounded=0;strokeColor=#FFFFFF;strokeWidth=1;fillColor=none;" parent="1" vertex="1"><mxGeometry x="-2700" y="274" width="120" height="60" as="geometry"/></mxCell><mxCell id="364" value="" style="edgeStyle=orthogonalEdgeStyle;rounded=0;orthogonalLoop=1;jettySize=auto;html=1;strokeColor=#FFFFFF;strokeWidth=1;" parent="1" source="366" target="367" edge="1"><mxGeometry relative="1" as="geometry"/></mxCell><mxCell id="376" style="edgeStyle=orthogonalEdgeStyle;rounded=0;orthogonalLoop=1;jettySize=auto;html=1;exitX=0.5;exitY=1;exitDx=0;exitDy=0;entryX=0.5;entryY=0;entryDx=0;entryDy=0;strokeColor=#FFFFFF;strokeWidth=1;" parent="1" source="366" target="374" edge="1"><mxGeometry relative="1" as="geometry"/></mxCell><mxCell id="366" value="basic check" style="rhombus;whiteSpace=wrap;html=1;rounded=0;strokeColor=#FFFFFF;strokeWidth=1;fillColor=none;" parent="1" vertex="1"><mxGeometry x="-2680" y="404" width="80" height="80" as="geometry"/></mxCell><mxCell id="367" value="error" style="whiteSpace=wrap;html=1;rounded=0;strokeColor=#B20000;strokeWidth=1;fillColor=#e51400;fontColor=#ffffff;" parent="1" vertex="1"><mxGeometry x="-2860" y="414" width="120" height="60" as="geometry"/></mxCell><mxCell id="378" value="" style="edgeStyle=orthogonalEdgeStyle;rounded=0;orthogonalLoop=1;jettySize=auto;html=1;strokeColor=#FFFFFF;strokeWidth=1;" parent="1" source="374" target="377" edge="1"><mxGeometry relative="1" as="geometry"/></mxCell><mxCell id="374" value="save config" style="whiteSpace=wrap;html=1;rounded=0;" parent="1" vertex="1"><mxGeometry x="-2700" y="550" width="120" height="60" as="geometry"/></mxCell><mxCell id="377" value="remind restart" style="whiteSpace=wrap;html=1;rounded=0;" parent="1" vertex="1"><mxGeometry x="-2700" y="690" width="120" height="60" as="geometry"/></mxCell><mxCell id="379" value="./meson service start&lt;br&gt;./meson service restart" style="text;html=1;strokeColor=none;fillColor=none;align=center;verticalAlign=middle;whiteSpace=wrap;rounded=0;" parent="1" vertex="1"><mxGeometry x="-290" y="94" width="240" height="50" as="geometry"/></mxCell><mxCell id="383" value="" style="edgeStyle=orthogonalEdgeStyle;rounded=0;orthogonalLoop=1;jettySize=auto;html=1;" parent="1" source="384" target="386" edge="1"><mxGeometry relative="1" as="geometry"/></mxCell><mxCell id="384" value="start" style="rounded=0;whiteSpace=wrap;html=1;" parent="1" vertex="1"><mxGeometry x="790" y="263" width="120" height="60" as="geometry"/></mxCell><mxCell id="385" value="" style="edgeStyle=orthogonalEdgeStyle;rounded=0;orthogonalLoop=1;jettySize=auto;html=1;" parent="1" source="386" target="405" edge="1"><mxGeometry relative="1" as="geometry"/></mxCell><mxCell id="443" style="edgeStyle=orthogonalEdgeStyle;rounded=0;orthogonalLoop=1;jettySize=auto;html=1;exitX=1;exitY=0.5;exitDx=0;exitDy=0;entryX=0;entryY=0.5;entryDx=0;entryDy=0;" parent="1" source="386" target="387" edge="1"><mxGeometry relative="1" as="geometry"/></mxCell><mxCell id="444" style="edgeStyle=orthogonalEdgeStyle;rounded=0;orthogonalLoop=1;jettySize=auto;html=1;exitX=1;exitY=0.5;exitDx=0;exitDy=0;entryX=0;entryY=0.5;entryDx=0;entryDy=0;" parent="1" source="386" target="390" edge="1"><mxGeometry relative="1" as="geometry"/></mxCell><mxCell id="445" style="edgeStyle=orthogonalEdgeStyle;rounded=0;orthogonalLoop=1;jettySize=auto;html=1;exitX=1;exitY=0.5;exitDx=0;exitDy=0;" parent="1" source="386" target="391" edge="1"><mxGeometry relative="1" as="geometry"/></mxCell><mxCell id="446" style="edgeStyle=orthogonalEdgeStyle;rounded=0;orthogonalLoop=1;jettySize=auto;html=1;exitX=1;exitY=0.5;exitDx=0;exitDy=0;entryX=0;entryY=0.5;entryDx=0;entryDy=0;" parent="1" source="386" target="392" edge="1"><mxGeometry relative="1" as="geometry"/></mxCell><mxCell id="447" style="edgeStyle=orthogonalEdgeStyle;rounded=0;orthogonalLoop=1;jettySize=auto;html=1;exitX=1;exitY=0.5;exitDx=0;exitDy=0;entryX=0;entryY=0.5;entryDx=0;entryDy=0;" parent="1" source="386" target="393" edge="1"><mxGeometry relative="1" as="geometry"/></mxCell><mxCell id="448" style="edgeStyle=orthogonalEdgeStyle;rounded=0;orthogonalLoop=1;jettySize=auto;html=1;exitX=1;exitY=0.5;exitDx=0;exitDy=0;entryX=0;entryY=0.5;entryDx=0;entryDy=0;" parent="1" source="386" target="394" edge="1"><mxGeometry relative="1" as="geometry"/></mxCell><mxCell id="449" style="edgeStyle=orthogonalEdgeStyle;rounded=0;orthogonalLoop=1;jettySize=auto;html=1;exitX=1;exitY=0.5;exitDx=0;exitDy=0;entryX=0;entryY=0.5;entryDx=0;entryDy=0;" parent="1" source="386" target="395" edge="1"><mxGeometry relative="1" as="geometry"/></mxCell><mxCell id="450" style="edgeStyle=orthogonalEdgeStyle;rounded=0;orthogonalLoop=1;jettySize=auto;html=1;exitX=1;exitY=0.5;exitDx=0;exitDy=0;entryX=0;entryY=0.5;entryDx=0;entryDy=0;" parent="1" source="386" target="388" edge="1"><mxGeometry relative="1" as="geometry"/></mxCell><mxCell id="451" style="edgeStyle=orthogonalEdgeStyle;rounded=0;orthogonalLoop=1;jettySize=auto;html=1;exitX=1;exitY=0.5;exitDx=0;exitDy=0;entryX=0;entryY=0.5;entryDx=0;entryDy=0;" parent="1" source="386" target="389" edge="1"><mxGeometry relative="1" as="geometry"/></mxCell><mxCell id="386" value="init component" style="whiteSpace=wrap;html=1;rounded=0;" parent="1" vertex="1"><mxGeometry x="790" y="384" width="120" height="60" as="geometry"/></mxCell><mxCell id="387" value="cache" style="rounded=0;whiteSpace=wrap;html=1;align=center;" parent="1" vertex="1"><mxGeometry x="950" y="284" width="120" height="20" as="geometry"/></mxCell><mxCell id="388" value="destMgr" style="rounded=0;whiteSpace=wrap;html=1;align=center;" parent="1" vertex="1"><mxGeometry x="950" y="314" width="120" height="20" as="geometry"/></mxCell><mxCell id="389" value="diskMgr" style="rounded=0;whiteSpace=wrap;html=1;align=center;" parent="1" vertex="1"><mxGeometry x="950" y="344" width="120" height="20" as="geometry"/></mxCell><mxCell id="390" value="echoServer" style="rounded=0;whiteSpace=wrap;html=1;align=center;" parent="1" vertex="1"><mxGeometry x="950" y="374" width="120" height="20" as="geometry"/></mxCell><mxCell id="391" value="randomKeyMgr" style="rounded=0;whiteSpace=wrap;html=1;align=center;" parent="1" vertex="1"><mxGeometry x="950" y="404" width="120" height="20" as="geometry"/></mxCell><mxCell id="392" value="signMgr" style="rounded=0;whiteSpace=wrap;html=1;align=center;" parent="1" vertex="1"><mxGeometry x="950" y="434" width="120" height="20" as="geometry"/></mxCell><mxCell id="393" value="statusMgr" style="rounded=0;whiteSpace=wrap;html=1;align=center;" parent="1" vertex="1"><mxGeometry x="950" y="464" width="120" height="20" as="geometry"/></mxCell><mxCell id="394" value="tlsCertificateMgr" style="rounded=0;whiteSpace=wrap;html=1;align=center;" parent="1" vertex="1"><mxGeometry x="950" y="494" width="120" height="20" as="geometry"/></mxCell><mxCell id="395" value="versionMgr" style="rounded=0;whiteSpace=wrap;html=1;align=center;" parent="1" vertex="1"><mxGeometry x="950" y="524" width="120" height="20" as="geometry"/></mxCell><mxCell id="397" value="" style="edgeStyle=orthogonalEdgeStyle;rounded=0;orthogonalLoop=1;jettySize=auto;html=1;" parent="1" source="398" target="401" edge="1"><mxGeometry relative="1" as="geometry"/></mxCell><mxCell id="398" value="check destination&lt;br&gt;(server host)" style="whiteSpace=wrap;html=1;rounded=0;" parent="1" vertex="1"><mxGeometry x="790" y="607" width="120" height="60" as="geometry"/></mxCell><mxCell id="399" value="" style="edgeStyle=orthogonalEdgeStyle;rounded=0;orthogonalLoop=1;jettySize=auto;html=1;" parent="1" source="401" target="402" edge="1"><mxGeometry relative="1" as="geometry"/></mxCell><mxCell id="400" value="no" style="edgeLabel;html=1;align=center;verticalAlign=middle;resizable=0;points=[];" parent="399" vertex="1" connectable="0"><mxGeometry x="-0.1333" y="-1" relative="1" as="geometry"><mxPoint as="offset"/></mxGeometry></mxCell><mxCell id="422" style="edgeStyle=orthogonalEdgeStyle;rounded=0;orthogonalLoop=1;jettySize=auto;html=1;exitX=0.5;exitY=1;exitDx=0;exitDy=0;entryX=0.5;entryY=0;entryDx=0;entryDy=0;strokeColor=#FFFFFF;strokeWidth=1;" parent="1" source="401" target="410" edge="1"><mxGeometry relative="1" as="geometry"/></mxCell><mxCell id="401" value="find server host" style="rhombus;whiteSpace=wrap;html=1;rounded=0;" parent="1" vertex="1"><mxGeometry x="810" y="708" width="80" height="80" as="geometry"/></mxCell><mxCell id="402" value="error" style="whiteSpace=wrap;html=1;rounded=0;direction=west;fillColor=#e51400;fontColor=#ffffff;strokeColor=#B20000;" parent="1" vertex="1"><mxGeometry x="560" y="718" width="120" height="60" as="geometry"/></mxCell><mxCell id="403" style="edgeStyle=orthogonalEdgeStyle;rounded=0;orthogonalLoop=1;jettySize=auto;html=1;exitX=0.5;exitY=1;exitDx=0;exitDy=0;entryX=0.5;entryY=0;entryDx=0;entryDy=0;" parent="1" source="405" target="398" edge="1"><mxGeometry relative="1" as="geometry"/></mxCell><mxCell id="404" value="" style="edgeStyle=orthogonalEdgeStyle;rounded=0;orthogonalLoop=1;jettySize=auto;html=1;" parent="1" source="405" target="406" edge="1"><mxGeometry relative="1" as="geometry"/></mxCell><mxCell id="405" value="success" style="rhombus;whiteSpace=wrap;html=1;rounded=0;" parent="1" vertex="1"><mxGeometry x="810" y="493" width="80" height="80" as="geometry"/></mxCell><mxCell id="406" value="error" style="whiteSpace=wrap;html=1;rounded=0;fillColor=#e51400;fontColor=#ffffff;strokeColor=#B20000;" parent="1" vertex="1"><mxGeometry x="560" y="503" width="120" height="60" as="geometry"/></mxCell><mxCell id="409" value="" style="edgeStyle=orthogonalEdgeStyle;rounded=0;orthogonalLoop=1;jettySize=auto;html=1;" parent="1" source="410" target="413" edge="1"><mxGeometry relative="1" as="geometry"/></mxCell><mxCell id="410" value="get public key for validator sign" style="whiteSpace=wrap;html=1;rounded=0;" parent="1" vertex="1"><mxGeometry x="790" y="853" width="120" height="60" as="geometry"/></mxCell><mxCell id="411" value="" style="edgeStyle=orthogonalEdgeStyle;rounded=0;orthogonalLoop=1;jettySize=auto;html=1;" parent="1" source="413" target="414" edge="1"><mxGeometry relative="1" as="geometry"/></mxCell><mxCell id="412" value="" style="edgeStyle=orthogonalEdgeStyle;rounded=0;orthogonalLoop=1;jettySize=auto;html=1;" parent="1" source="413" target="416" edge="1"><mxGeometry relative="1" as="geometry"/></mxCell><mxCell id="413" value="pass" style="rhombus;whiteSpace=wrap;html=1;rounded=0;" parent="1" vertex="1"><mxGeometry x="810" y="983" width="80" height="80" as="geometry"/></mxCell><mxCell id="414" value="error" style="whiteSpace=wrap;html=1;rounded=0;fillColor=#e51400;fontColor=#ffffff;strokeColor=#B20000;" parent="1" vertex="1"><mxGeometry x="560" y="993" width="120" height="60" as="geometry"/></mxCell><mxCell id="415" value="" style="edgeStyle=orthogonalEdgeStyle;rounded=0;orthogonalLoop=1;jettySize=auto;html=1;" parent="1" source="416" target="419" edge="1"><mxGeometry relative="1" as="geometry"/></mxCell><mxCell id="416" value="get tls cert" style="whiteSpace=wrap;html=1;rounded=0;" parent="1" vertex="1"><mxGeometry x="790" y="1153" width="120" height="60" as="geometry"/></mxCell><mxCell id="417" value="" style="edgeStyle=orthogonalEdgeStyle;rounded=0;orthogonalLoop=1;jettySize=auto;html=1;" parent="1" source="419" target="420" edge="1"><mxGeometry relative="1" as="geometry"/></mxCell><mxCell id="418" value="" style="edgeStyle=orthogonalEdgeStyle;rounded=0;orthogonalLoop=1;jettySize=auto;html=1;" parent="1" source="419" target="421" edge="1"><mxGeometry relative="1" as="geometry"/></mxCell><mxCell id="419" value="pass" style="rhombus;whiteSpace=wrap;html=1;rounded=0;" parent="1" vertex="1"><mxGeometry x="810" y="1283" width="80" height="80" as="geometry"/></mxCell><mxCell id="420" value="error" style="whiteSpace=wrap;html=1;rounded=0;fillColor=#e51400;fontColor=#ffffff;strokeColor=#B20000;" parent="1" vertex="1"><mxGeometry x="560" y="1293" width="120" height="60" as="geometry"/></mxCell><mxCell id="427" value="" style="edgeStyle=orthogonalEdgeStyle;rounded=0;orthogonalLoop=1;jettySize=auto;html=1;" parent="1" source="421" target="426" edge="1"><mxGeometry relative="1" as="geometry"/></mxCell><mxCell id="421" value="start server" style="whiteSpace=wrap;html=1;rounded=0;" parent="1" vertex="1"><mxGeometry x="790" y="1453" width="120" height="60" as="geometry"/></mxCell><mxCell id="424" style="edgeStyle=orthogonalEdgeStyle;rounded=0;orthogonalLoop=1;jettySize=auto;html=1;exitX=0.5;exitY=1;exitDx=0;exitDy=0;entryX=0.5;entryY=0;entryDx=0;entryDy=0;strokeColor=#FFFFFF;strokeWidth=1;" parent="1" source="423" target="384" edge="1"><mxGeometry relative="1" as="geometry"/></mxCell><mxCell id="423" value="pre check pass" style="rounded=0;whiteSpace=wrap;html=1;strokeColor=#FFFFFF;strokeWidth=1;fillColor=none;align=center;" parent="1" vertex="1"><mxGeometry x="790" y="144" width="120" height="60" as="geometry"/></mxCell><mxCell id="436" style="edgeStyle=orthogonalEdgeStyle;rounded=0;orthogonalLoop=1;jettySize=auto;html=1;exitX=1;exitY=0.5;exitDx=0;exitDy=0;entryX=0;entryY=0.5;entryDx=0;entryDy=0;" parent="1" source="426" target="432" edge="1"><mxGeometry relative="1" as="geometry"/></mxCell><mxCell id="437" style="edgeStyle=orthogonalEdgeStyle;rounded=0;orthogonalLoop=1;jettySize=auto;html=1;exitX=1;exitY=0.5;exitDx=0;exitDy=0;entryX=0;entryY=0.5;entryDx=0;entryDy=0;" parent="1" source="426" target="433" edge="1"><mxGeometry relative="1" as="geometry"/></mxCell><mxCell id="438" style="edgeStyle=orthogonalEdgeStyle;rounded=0;orthogonalLoop=1;jettySize=auto;html=1;exitX=1;exitY=0.5;exitDx=0;exitDy=0;entryX=0;entryY=0.5;entryDx=0;entryDy=0;" parent="1" source="426" target="434" edge="1"><mxGeometry relative="1" as="geometry"/></mxCell><mxCell id="439" style="edgeStyle=orthogonalEdgeStyle;rounded=0;orthogonalLoop=1;jettySize=auto;html=1;exitX=1;exitY=0.5;exitDx=0;exitDy=0;entryX=0;entryY=0.5;entryDx=0;entryDy=0;" parent="1" source="426" target="435" edge="1"><mxGeometry relative="1" as="geometry"/></mxCell><mxCell id="440" style="edgeStyle=orthogonalEdgeStyle;rounded=0;orthogonalLoop=1;jettySize=auto;html=1;exitX=1;exitY=0.5;exitDx=0;exitDy=0;entryX=0;entryY=0.5;entryDx=0;entryDy=0;" parent="1" source="426" target="431" edge="1"><mxGeometry relative="1" as="geometry"/></mxCell><mxCell id="441" style="edgeStyle=orthogonalEdgeStyle;rounded=0;orthogonalLoop=1;jettySize=auto;html=1;exitX=1;exitY=0.5;exitDx=0;exitDy=0;entryX=0;entryY=0.5;entryDx=0;entryDy=0;" parent="1" source="426" target="429" edge="1"><mxGeometry relative="1" as="geometry"/></mxCell><mxCell id="442" style="edgeStyle=orthogonalEdgeStyle;rounded=0;orthogonalLoop=1;jettySize=auto;html=1;exitX=1;exitY=0.5;exitDx=0;exitDy=0;entryX=0;entryY=0.5;entryDx=0;entryDy=0;" parent="1" source="426" target="428" edge="1"><mxGeometry relative="1" as="geometry"/></mxCell><mxCell id="426" value="start ScheduleJob" style="whiteSpace=wrap;html=1;rounded=0;" parent="1" vertex="1"><mxGeometry x="790" y="1593" width="120" height="60" as="geometry"/></mxCell><mxCell id="428" value="heartBeat" style="rounded=0;whiteSpace=wrap;html=1;align=center;" parent="1" vertex="1"><mxGeometry x="960" y="1523" width="120" height="20" as="geometry"/></mxCell><mxCell id="429" value="uploadStatus" style="rounded=0;whiteSpace=wrap;html=1;align=center;" parent="1" vertex="1"><mxGeometry x="960" y="1553" width="120" height="20" as="geometry"/></mxCell><mxCell id="431" value="scanExpireFiles" style="rounded=0;whiteSpace=wrap;html=1;align=center;fillColor=#F0A30A;fontColor=#000000;strokeColor=#BD7000;" parent="1" vertex="1"><mxGeometry x="960" y="1583" width="120" height="20" as="geometry"/></mxCell><mxCell id="432" value="checkTlsCertificate" style="rounded=0;whiteSpace=wrap;html=1;align=center;fillColor=#6D8764;fontColor=#ffffff;strokeColor=#3A5431;" parent="1" vertex="1"><mxGeometry x="960" y="1613" width="120" height="20" as="geometry"/></mxCell><mxCell id="433" value="checkPublicKey(sign)" style="rounded=0;whiteSpace=wrap;html=1;align=center;" parent="1" vertex="1"><mxGeometry x="960" y="1643" width="120" height="20" as="geometry"/></mxCell><mxCell id="434" value="updateRandomKey" style="rounded=0;whiteSpace=wrap;html=1;align=center;" parent="1" vertex="1"><mxGeometry x="960" y="1673" width="120" height="20" as="geometry"/></mxCell><mxCell id="435" value="uploadPanic" style="rounded=0;whiteSpace=wrap;html=1;align=center;" parent="1" vertex="1"><mxGeometry x="960" y="1703" width="120" height="20" as="geometry"/></mxCell><mxCell id="456" style="edgeStyle=orthogonalEdgeStyle;rounded=0;orthogonalLoop=1;jettySize=auto;html=1;exitX=0.5;exitY=1;exitDx=0;exitDy=0;entryX=0.5;entryY=0;entryDx=0;entryDy=0;" edge="1" parent="1" source="454" target="115"><mxGeometry relative="1" as="geometry"/></mxCell><mxCell id="454" value="save config" style="whiteSpace=wrap;html=1;rounded=0;" vertex="1" parent="1"><mxGeometry x="110" y="1674" width="120" height="60" as="geometry"/></mxCell><mxCell id="459" style="edgeStyle=orthogonalEdgeStyle;rounded=0;orthogonalLoop=1;jettySize=auto;html=1;exitX=0.5;exitY=1;exitDx=0;exitDy=0;entryX=0.5;entryY=0;entryDx=0;entryDy=0;" edge="1" parent="1" source="457" target="102"><mxGeometry relative="1" as="geometry"/></mxCell><mxCell id="457" value="save config" style="whiteSpace=wrap;html=1;rounded=0;" vertex="1" parent="1"><mxGeometry x="110" y="1250" width="120" height="60" as="geometry"/></mxCell><mxCell id="462" value="" style="edgeStyle=orthogonalEdgeStyle;rounded=0;orthogonalLoop=1;jettySize=auto;html=1;" edge="1" parent="1" source="460" target="461"><mxGeometry relative="1" as="geometry"/></mxCell><mxCell id="460" value="&lt;span&gt;scanExpireFiles&lt;/span&gt;" style="rounded=0;whiteSpace=wrap;html=1;" vertex="1" parent="1"><mxGeometry x="740" y="1840" width="120" height="60" as="geometry"/></mxCell><mxCell id="464" value="" style="edgeStyle=orthogonalEdgeStyle;rounded=0;orthogonalLoop=1;jettySize=auto;html=1;" edge="1" parent="1" source="461" target="463"><mxGeometry relative="1" as="geometry"/></mxCell><mxCell id="461" value="getExpireTime&lt;br&gt;from serverr" style="whiteSpace=wrap;html=1;rounded=0;" vertex="1" parent="1"><mxGeometry x="740" y="1934" width="120" height="60" as="geometry"/></mxCell><mxCell id="466" value="" style="edgeStyle=orthogonalEdgeStyle;rounded=0;orthogonalLoop=1;jettySize=auto;html=1;" edge="1" parent="1" source="463" target="465"><mxGeometry relative="1" as="geometry"/></mxCell><mxCell id="463" value="get expire file list from diskMgr" style="whiteSpace=wrap;html=1;rounded=0;" vertex="1" parent="1"><mxGeometry x="740" y="2024" width="120" height="60" as="geometry"/></mxCell><mxCell id="468" value="" style="edgeStyle=orthogonalEdgeStyle;rounded=0;orthogonalLoop=1;jettySize=auto;html=1;" edge="1" parent="1" source="465" target="467"><mxGeometry relative="1" as="geometry"/></mxCell><mxCell id="465" value="notify server&amp;nbsp;&lt;br&gt;apply for delete file" style="whiteSpace=wrap;html=1;rounded=0;" vertex="1" parent="1"><mxGeometry x="740" y="2124" width="120" height="60" as="geometry"/></mxCell><mxCell id="470" value="" style="edgeStyle=orthogonalEdgeStyle;rounded=0;orthogonalLoop=1;jettySize=auto;html=1;" edge="1" parent="1" source="467" target="469"><mxGeometry relative="1" as="geometry"/></mxCell><mxCell id="467" value="get feedback file list" style="whiteSpace=wrap;html=1;rounded=0;" vertex="1" parent="1"><mxGeometry x="740" y="2218" width="120" height="60" as="geometry"/></mxCell><mxCell id="469" value="delete approval files" style="whiteSpace=wrap;html=1;rounded=0;" vertex="1" parent="1"><mxGeometry x="740" y="2308" width="120" height="60" as="geometry"/></mxCell><mxCell id="471" value="" style="rounded=0;whiteSpace=wrap;html=1;fillColor=none;dashed=1;strokeColor=#F0A30A;strokeWidth=2;" vertex="1" parent="1"><mxGeometry x="700" y="1780" width="190" height="620" as="geometry"/></mxCell><mxCell id="472" value="schedule delete expire files&lt;br&gt;run every 10 minutes" style="text;html=1;strokeColor=none;fillColor=none;align=center;verticalAlign=middle;whiteSpace=wrap;rounded=0;dashed=1;" vertex="1" parent="1"><mxGeometry x="700" y="1780" width="170" height="60" as="geometry"/></mxCell><mxCell id="477" value="" style="edgeStyle=orthogonalEdgeStyle;rounded=0;orthogonalLoop=1;jettySize=auto;html=1;" edge="1" parent="1" source="473" target="476"><mxGeometry relative="1" as="geometry"/></mxCell><mxCell id="473" value="checkTlsCertificate" style="rounded=0;whiteSpace=wrap;html=1;strokeWidth=1;" vertex="1" parent="1"><mxGeometry x="1160" y="1840" width="120" height="60" as="geometry"/></mxCell><mxCell id="479" value="" style="edgeStyle=orthogonalEdgeStyle;rounded=0;orthogonalLoop=1;jettySize=auto;html=1;" edge="1" parent="1" source="476" target="478"><mxGeometry relative="1" as="geometry"/></mxCell><mxCell id="476" value="check current cert hash from server" style="whiteSpace=wrap;html=1;rounded=0;strokeWidth=1;" vertex="1" parent="1"><mxGeometry x="1160" y="1934" width="120" height="60" as="geometry"/></mxCell><mxCell id="481" value="" style="edgeStyle=orthogonalEdgeStyle;rounded=0;orthogonalLoop=1;jettySize=auto;html=1;" edge="1" parent="1" source="478" target="480"><mxGeometry relative="1" as="geometry"/></mxCell><mxCell id="483" value="" style="edgeStyle=orthogonalEdgeStyle;rounded=0;orthogonalLoop=1;jettySize=auto;html=1;" edge="1" parent="1" source="478" target="482"><mxGeometry relative="1" as="geometry"/></mxCell><mxCell id="484" value="no" style="edgeLabel;html=1;align=center;verticalAlign=middle;resizable=0;points=[];" vertex="1" connectable="0" parent="483"><mxGeometry x="-0.0889" y="1" relative="1" as="geometry"><mxPoint as="offset"/></mxGeometry></mxCell><mxCell id="478" value="same with local" style="rhombus;whiteSpace=wrap;html=1;rounded=0;strokeWidth=1;" vertex="1" parent="1"><mxGeometry x="1180" y="2030" width="80" height="80" as="geometry"/></mxCell><mxCell id="480" value="finish" style="whiteSpace=wrap;html=1;rounded=0;strokeWidth=1;" vertex="1" parent="1"><mxGeometry x="1000" y="2040" width="120" height="60" as="geometry"/></mxCell><mxCell id="486" value="" style="edgeStyle=orthogonalEdgeStyle;rounded=0;orthogonalLoop=1;jettySize=auto;html=1;" edge="1" parent="1" source="482" target="485"><mxGeometry relative="1" as="geometry"/></mxCell><mxCell id="482" value="get new cert files" style="whiteSpace=wrap;html=1;rounded=0;strokeWidth=1;" vertex="1" parent="1"><mxGeometry x="1160" y="2158" width="120" height="60" as="geometry"/></mxCell><mxCell id="488" value="" style="edgeStyle=orthogonalEdgeStyle;rounded=0;orthogonalLoop=1;jettySize=auto;html=1;" edge="1" parent="1" source="485" target="487"><mxGeometry relative="1" as="geometry"/></mxCell><mxCell id="489" value="not pass" style="edgeLabel;html=1;align=center;verticalAlign=middle;resizable=0;points=[];" vertex="1" connectable="0" parent="488"><mxGeometry x="-0.1667" y="1" relative="1" as="geometry"><mxPoint as="offset"/></mxGeometry></mxCell><mxCell id="491" value="" style="edgeStyle=orthogonalEdgeStyle;rounded=0;orthogonalLoop=1;jettySize=auto;html=1;" edge="1" parent="1" source="485" target="490"><mxGeometry relative="1" as="geometry"/></mxCell><mxCell id="485" value="validate" style="rhombus;whiteSpace=wrap;html=1;rounded=0;strokeWidth=1;" vertex="1" parent="1"><mxGeometry x="1180" y="2260" width="80" height="80" as="geometry"/></mxCell><mxCell id="487" value="error" style="whiteSpace=wrap;html=1;rounded=0;strokeWidth=1;" vertex="1" parent="1"><mxGeometry x="1000" y="2272" width="120" height="60" as="geometry"/></mxCell><mxCell id="490" value="restart echo server" style="whiteSpace=wrap;html=1;rounded=0;strokeWidth=1;" vertex="1" parent="1"><mxGeometry x="1160" y="2380" width="120" height="60" as="geometry"/></mxCell><mxCell id="493" value="schedule check tlsCert&lt;br&gt;run every 1 hour" style="text;html=1;strokeColor=none;fillColor=none;align=center;verticalAlign=middle;whiteSpace=wrap;rounded=0;dashed=1;" vertex="1" parent="1"><mxGeometry x="980" y="1780" width="170" height="60" as="geometry"/></mxCell></root></mxGraphModel></diagram></mxfile>